#!OML:ASF F:\VICON\USERDATA\INSTALL\rory3\rory3.ASF
:FULLY-SPECIFIED
:DEGREES
36
root -0.7175045717726033 17.6996841190386 -16.120972700725698 4.931381776929564 2.327459548251727 -3.7115063275514304
lfemur -40.50247020747536 -1.230558585425182 -17.461645411896363
ltibia 70.50135780473978
lfoot 6.136831671871321 -13.316632636850537
ltoes -20.083555673159815
rfemur 9.638684429435735 4.702294750075978 34.52413401143029
rtibia 58.1272539462868
rfoot -0.020663529901889355 -6.25304188003495
rtoes -10.87102109474972
lowerback 14.350435319128755 1.8889193127531037 5.003605223693134
upperback -1.2657209077709501 3.3243720225095688 1.0888987560654726
thorax -9.775359609334942 1.3375769430061457 -2.176346842009544
lowerneck -19.114655141030696 -4.738951649798626 -1.7340185153511236
upperneck 10.553683014376505 -6.194547512962819 1.1523759959884985
head 6.045122077950965 -3.003918471884908 -0.11077293174665526
lclavicle 1.1245391003462315e-15 -1.4766016290042064e-15
lhumerus -41.49843075012345 -19.758515280040932 97.36599580780722
lradius 104.46107482336468
lwrist 41.33165405600717
lhand -29.011013284378645 -0.5421409999211024
lfingers 7.125019999999998
lthumb -1.3362451002688593 30.27481945376571
rclavicle 1.1245391004204527e-15 -1.476601628954268e-15
rhumerus -42.782490708227144 14.27955218163891 -92.46090988242544
rradius 123.8583263009948
rwrist -11.426884426670206
rhand -21.480605854057373 42.089905128078655
rfingers 7.125019999999998
rthumb 4.882073115686096 11.764309125028092
37
root -0.7076768634182566 17.7538542470775 -15.567183953932567 5.033453200406305 2.4892356256399175 -3.4345774738690658
lfemur -39.77250454797688 -1.5007600744418461 -18.075901337522374
ltibia 65.65595354624298
lfoot 6.295614442518521 -12.918783098518288
ltoes -19.55693071919655
rfemur 10.071017485294856 5.0653696475910985 34.198903361725655
rtibia 61.54853314559364
rfoot 2.7255672763453322 -5.577163474641617
rtoes -7.764546901980625
lowerback 13.987322237532421 1.8849404032679569 4.7512907311714265
upperback -1.3765819115429334 3.2769730723445867 0.8139674299761928
thorax -9.519237196947135 1.3285219607876462 -2.263444471455598
lowerneck -18.767170525881806 -4.8764578219176595 -1.7211170996608702
upperneck 10.834437637327367 -6.42924541348871 1.2407648211114966
head 6.094440332052693 -3.1130853993078342 -0.10468685456744309
lclavicle 1.1245391003529209e-15 -1.4766016290008403e-15
lhumerus -40.28582544667093 -19.918570172484998 97.15691895398943
lradius 105.95992685761257
lwrist 41.377241149787324
lhand -28.69920402849185 -0.4170310270252401
lfingers 7.125019999999998
lthumb -1.380525854369567 29.992501404034844
rclavicle 1.124539100422925e-15 -1.4766016289540938e-15
rhumerus -43.584248719257815 14.137405754016447 -92.58901034726281
rradius 124.47435035336541
rwrist -11.106029934500361
rhand -21.56208076510753 41.65496422089882
rfingers 7.125019999999998
rthumb 4.8640262847919775 11.272226543203015
38
root -0.6945838963205019 17.804426002848597 -14.75579493624484 5.131330375799775 2.5983864861061745 -3.1944002316871933
lfemur -38.94388111998005 -1.6822173611289317 -18.654176862240696
ltibia 60.8701417860318
lfoot 7.14726941954544 -11.811565070458494
ltoes -19.13525377454348
rfemur 10.353234225597209 5.504211622973069 34.01158282823118
rtibia 65.27314889941653
rfoot 4.559183015741734 -5.451630189693008
rtoes -5.836030402103383
lowerback 13.641530729984504 1.865046979047351 4.513032412217245
upperback -1.5034495032899957 3.2048007185105103 0.5399526253890575
thorax -9.258234143485431 1.3078829277613162 -2.340801777036563
lowerneck -18.322255929665495 -4.984225504088279 -1.7555779864061172
upperneck 11.0277953978132 -6.612738661279285 1.3521401392488115
head 6.113911242288314 -3.194510017761459 -0.08411833623336362
lclavicle 1.1245391003533157e-15 -1.476601629002099e-15
lhumerus -39.17085696100085 -20.00084752678736 97.00520249307677
lradius 107.62215287897858
lwrist 41.5115266511094
lhand -28.60741216121882 -0.3287770311102396
lfingers 7.125019999999998
lthumb -1.3594439334166655 29.96761061608203
rclavicle 1.1245391004232965e-15 -1.4766016289554445e-15
rhumerus -44.42331021533952 13.941896845510833 -92.77194059477452
rradius 125.09448154896424
rwrist -11.01259072736443
rhand -21.619236934480057 41.36486747130115
rfingers 7.125019999999998
rthumb 4.864194416489494 11.084549575129572
39
root -0.6913636383485429 17.847069446123594 -14.296024318271474 5.228899693726677 2.6532927948281753 -3.033274643247932
lfemur -38.039452999193344 -1.720429507042183 -19.15112428243278
ltibia 56.104630642659785
lfoot 7.318126046770363 -10.550871499360136
ltoes -21.355299177641818
rfemur 10.285990282961642 6.000518535222099 33.94328117737814
rtibia 69.0997211469424
rfoot 5.881177736188901 -5.365125894400528
rtoes -4.63567879067346
lowerback 13.4053411494919 1.8435415112274982 4.303655490911962
upperback -1.6187804675392945 3.152678008553892 0.31451499289540097
thorax -9.040046006241983 1.2963584546028957 -2.3823385607576655
lowerneck -17.978144065162766 -5.07870392860497 -1.8032282932946253
upperneck 11.18782298225964 -6.766162848054116 1.4736148772641229
head 6.157388593803706 -3.25344632944151 -0.06446596038668928
lclavicle 1.1245391003546228e-15 -1.476601629001931e-15
lhumerus -38.15857259458918 -20.055466162895208 96.93505001434482
lradius 109.38996044200769
lwrist 41.95060386031201
lhand -28.60690625911808 -0.4069161528529741
lfingers 7.125019999999998
lthumb -1.4344508225675314 29.76492348053147
rclavicle 1.1245391004187296e-15 -1.4766016289596024e-15
rhumerus -45.38094748074398 13.606432148314058 -93.06029169526819
rradius 125.66449313263256
rwrist -11.145316782995355
rhand -21.69281323007084 41.26494800807914
rfingers 7.125019999999998
rthumb 4.8632036932771605 11.211311934522499
40
root -0.6996712970011919 17.880547081507892 -13.800852693400024 5.320798485790789 2.619514648992671 -2.9461798906466665
lfemur -37.03211497323903 -1.6045308044185713 -19.56470759636736
ltibia 51.373588635037756
lfoot 6.7209115198076095 -9.831552806602135
ltoes -24.1586026557141
rfemur 9.916415696426451 6.531960574574281 33.94175549131925
rtibia 72.9424265148804
rfoot 6.856170582916251 -5.335267401544763
rtoes -3.131224134643578
lowerback 13.276993684633455 1.8272556939248916 4.085611060916429
upperback -1.6822961267036574 3.0994706722413468 0.1502065189519881
thorax -8.88882593387887 1.2843647591354037 -2.3726407376950185
lowerneck -17.676889515045318 -5.155328212039457 -1.8515879461285663
upperneck 11.286087316166538 -6.894539431979622 1.6000104362318317
head 6.168629593646158 -3.306569374012321 -0.038659056096114086
lclavicle 1.1245391003550478e-15 -1.476601629002135e-15
lhumerus -37.24504878410166 -20.059561183670855 96.91728367974952
lradius 111.22368625236585
lwrist 42.533579582973125
lhand -28.63338715964877 -0.4970819054208341
lfingers 7.125019999999998
lthumb -1.6273305977731907 29.70343175719739
rclavicle 1.124539100416557e-15 -1.4766016289617524e-15
rhumerus -46.320000552277186 13.273328328317186 -93.50155904865032
rradius 126.09183654152672
rwrist -11.406694701945819
rhand -21.732748371070855 41.399214050863804
rfingers 7.125019999999998
rthumb 4.886093670125658 11.540332486917693
41
root -0.7017044029867446 17.918684989810817 -12.8412732988193 5.404928821606191 2.4855774576821386 -2.8934586562537747
lfemur -35.87042881067309 -1.2976378626701912 -20.042627673291705
ltibia 46.81170676930115
lfoot 6.451660429005428 -9.573056466885623
ltoes -24.219987564106653
rfemur 8.837996426461196 6.9627975913690765 33.59859502346552
rtibia 76.73786313899913
rfoot 7.36994713810409 -5.521248210678822
rtoes -1.667687670605916
lowerback 13.11294037765622 1.821135339439363 3.9290958100203497
upperback -1.7150007265808687 3.067027443930772 0.021559825881074524
thorax -8.697836358011203 1.2818430040996067 -2.381182987464318
lowerneck -17.441646097793118 -5.199473927506119 -1.89915607224769
upperneck 11.383486861450054 -6.972040773528047 1.7291431424998274
head 6.172970228064617 -3.3325981579454513 0.00048185764389463426
lclavicle 1.1245391003534236e-15 -1.4766016290036952e-15
lhumerus -36.638048784030616 -19.965134402593364 96.9607038713902
lradius 113.03455808644878
lwrist 42.43713575427918
lhand -28.678173170143484 -0.5085633850352689
lfingers 7.125019999999998
lthumb -1.502326581280101 29.96213423722356
rclavicle 1.1245391004114634e-15 -1.476601628965892e-15
rhumerus -46.99493637539654 13.06088696507933 -93.89033246664297
rradius 126.21534523719939
rwrist -11.552063917289003
rhand -21.7912700423223 41.46567343746885
rfingers 7.125019999999998
rthumb 4.874166196001674 11.709705326254724
42
root -0.6941165224192974 17.953150192597835 -11.942278703498797 5.46523730967768 2.2677776071531115 -2.8720151807411995
lfemur -34.69139042136246 -0.8749916484364619 -20.519633581447184
ltibia 42.6449796008917
lfoot 6.641702613061155 -9.600141086440276
ltoes -23.039798517174066
rfemur 7.5830742161591616 7.2795969636257345 33.28705900705132
rtibia 80.48230996100281
rfoot 7.4067666432336505 -6.2524809167632585
rtoes -1.9567886316783443
lowerback 12.935349581935375 1.82267666365284 3.829615945140972
upperback -1.7309781562718833 3.0498209008929007 -0.07391772566967103
thorax -8.408212796923888 1.2922493916940365 -2.3777774980159627
lowerneck -17.373765096591555 -5.228294360395491 -1.9421347502086672
upperneck 11.509931872992519 -7.047130007182709 1.8665080252677009
head 6.230346641951275 -3.352738341767639 0.0383933930371364
lclavicle 1.1245391003491582e-15 -1.4766016290072551e-15
lhumerus -36.15176111172974 -20.027674886870305 96.93136613564636
lradius 114.63959400425385
lwrist 42.49771267431464
lhand -28.792864326948944 -0.522130453278293
lfingers 7.125019999999998
lthumb -1.7748627937797372 29.704559054900628
rclavicle 1.1245391004101135e-15 -1.4766016289673397e-15
rhumerus -47.485991003107046 12.949473626236387 -94.28849599283538
rradius 126.13836964917832
rwrist -11.694497632567959
rhand -21.759219046152925 41.67520667206944
rfingers 7.125019999999998
rthumb 4.879711080398263 11.839578745566406
43
root -0.688329249711617 17.96823181233325 -11.096354648219467 5.487070499118777 2.0151605994328317 -2.8579403190395167
lfemur -33.541069647602384 -0.3801092424597884 -20.998048568413694
ltibia 39.07265776224429
lfoot 6.380902266936328 -10.176899068233602
ltoes -23.02096342958823
rfemur 6.2356938524231325 7.470203863419667 32.94921499816874
rtibia 84.20899237721692
rfoot 7.393042958505388 -7.0909400726526215
rtoes -2.459635493858538
lowerback 12.833088160005278 1.8289675055948091 3.7287971703036202
upperback -1.7483167818918246 3.054938221082971 -0.132539924539524
thorax -8.183382079231894 1.3098171863233745 -2.3505837861112866
lowerneck -17.322872545274514 -5.235878355876505 -2.0051887972349722
upperneck 11.584007885522082 -7.0858834164472055 2.0318867030009473
head 6.302209332049276 -3.3494548788482192 0.08735753774428545
lclavicle 1.124539100347556e-15 -1.4766016290090275e-15
lhumerus -35.652193943451465 -20.221099185847763 96.91966256779352
lradius 116.05670023206083
lwrist 42.28531525431085
lhand -28.827004256319533 -0.5408493757530188
lfingers 7.125019999999998
lthumb -1.9579870236152228 29.430659687420448
rclavicle 1.1245391004052906e-15 -1.4766016289714805e-15
rhumerus -47.91105999635049 12.874881618941679 -94.7057804184719
rradius 125.90215460512138
rwrist -11.959602071899578
rhand -21.707082294227092 41.92024920733615
rfingers 7.125019999999998
rthumb 4.864935038095846 11.924382467043348
